<svg xmlns="http://www.w3.org/2000/svg" width="450" height="450" viewBox="0 0 450 450">
  <path d="M320,220 C400,100 450,10 450,10 C450,10 360,60 240,140 C120,220 10,450 10,450 C10,450 240,340 320,220 Z" fill="#558B2F" fill-opacity="0.05"/>
  <path d="M300,240 C380,120 430,30 430,30 C430,30 340,80 220,160 C100,240 30,430 30,430 C30,430 220,360 300,240 Z" fill="#8BC34A" fill-opacity="0.07"/>
  <path d="M350,190 C430,70 450,10 450,10 C450,10 390,30 270,110 C150,190 10,450 10,450 C10,450 270,310 350,190 Z" fill="#33691E" fill-opacity="0.06"/>
  <path d="M340,200 C420,80 450,20 450,20 C450,20 390,50 270,130 C150,210 20,450 20,450 C20,450 260,320 340,200 Z" fill="#689F38" fill-opacity="0.04"/>
</svg> 