<svg xmlns="http://www.w3.org/2000/svg" width="400" height="50" viewBox="0 0 400 50">
  <defs>
    <pattern id="soil-pattern" patternUnits="userSpaceOnUse" width="20" height="10">
      <rect width="20" height="10" fill="#5D4037" fill-opacity="0.8"/>
      <ellipse cx="5" cy="3" rx="2" ry="1" fill="#3E2723" fill-opacity="0.7"/>
      <ellipse cx="15" cy="7" rx="2" ry="1" fill="#3E2723" fill-opacity="0.7"/>
      <ellipse cx="10" cy="5" rx="1.5" ry="0.8" fill="#8D6E63" fill-opacity="0.5"/>
    </pattern>
  </defs>
  <rect width="400" height="15" fill="url(#soil-pattern)"/>
  <rect y="15" width="400" height="20" fill="#5D4037" fill-opacity="0.7"/>
  <ellipse cx="50" cy="10" rx="25" ry="6" fill="#3E2723" fill-opacity="0.4"/>
  <ellipse cx="150" cy="8" rx="30" ry="5" fill="#3E2723" fill-opacity="0.4"/>
  <ellipse cx="250" cy="12" rx="20" ry="7" fill="#3E2723" fill-opacity="0.4"/>
  <ellipse cx="350" cy="10" rx="25" ry="6" fill="#3E2723" fill-opacity="0.4"/>
  <path d="M0,35 C50,25 100,40 150,30 C200,20 250,35 300,25 C350,15 400,30 400,30 L400,50 L0,50 Z" fill="#3E2723" fill-opacity="0.6"/>
</svg> 