<svg xmlns="http://www.w3.org/2000/svg" width="100" height="100" viewBox="0 0 100 100">
  <defs>
    <pattern id="pattern" patternUnits="userSpaceOnUse" width="100" height="100" patternTransform="rotate(45)">
      <rect width="100%" height="100%" fill="#FCFEF8"/>
      <path d="M0,0 L100,0 L100,1 L0,1 Z" fill="#E8F5E9" fill-opacity="0.3"/>
      <path d="M0,10 L100,10 L100,11 L0,11 Z" fill="#E8F5E9" fill-opacity="0.3"/>
      <path d="M0,20 L100,20 L100,21 L0,21 Z" fill="#E8F5E9" fill-opacity="0.3"/>
      <path d="M0,30 L100,30 L100,31 L0,31 Z" fill="#E8F5E9" fill-opacity="0.3"/>
      <path d="M0,40 L100,40 L100,41 L0,41 Z" fill="#E8F5E9" fill-opacity="0.3"/>
      <path d="M0,50 L100,50 L100,51 L0,51 Z" fill="#E8F5E9" fill-opacity="0.3"/>
      <path d="M0,60 L100,60 L100,61 L0,61 Z" fill="#E8F5E9" fill-opacity="0.3"/>
      <path d="M0,70 L100,70 L100,71 L0,71 Z" fill="#E8F5E9" fill-opacity="0.3"/>
      <path d="M0,80 L100,80 L100,81 L0,81 Z" fill="#E8F5E9" fill-opacity="0.3"/>
      <path d="M0,90 L100,90 L100,91 L0,91 Z" fill="#E8F5E9" fill-opacity="0.3"/>
    </pattern>
  </defs>
  <rect width="100%" height="100%" fill="url(#pattern)"/>
</svg> 